<?xml version="1.0" encoding="UTF-8"?>
<svg width="16px" height="16px" viewBox="0 0 16 16" version="1.1" xmlns="http://www.w3.org/2000/svg" xmlns:xlink="http://www.w3.org/1999/xlink">
    <!-- Generator: Sketch 49.3 (51167) - http://www.bohemiancoding.com/sketch -->
    <title>ic-back</title>
    <desc>Created with Sketch.</desc>
    <defs></defs>
    <g id="ic-back" stroke="none" stroke-width="1" fill="none" fill-rule="evenodd">
        <path d="M15.3333333,6.66672222 L4.94266667,6.66672222 L9.61333333,2.07891338 C9.87333333,1.81892421 9.87333333,1.39760843 9.61333333,1.13761927 L8.67066667,0.194991875 C8.41066667,-0.0649972918 7.988,-0.0649972918 7.728,0.194991875 L0.170666667,7.64134828 C0.0693333333,7.74267739 0.0213333333,7.86933878 0,8 C0.0213333333,8.13066122 0.0693333333,8.25732261 0.170666667,8.35865172 L7.728,15.8050081 C7.988,16.0649973 8.41066667,16.0649973 8.67066667,15.8050081 L9.61333333,14.863714 C9.87333333,14.6037248 9.87333333,14.1824091 9.61333333,13.9224199 L4.94266667,9.33327778 L15.3333333,9.33327778 C15.7013333,9.33327778 16,9.03462356 16,8.66663889 L16,7.33336111 C16,6.96537644 15.7013333,6.66672222 15.3333333,6.66672222 Z" id="Shape" fill="#137BCF" fill-rule="nonzero"></path>
    </g>
</svg>