<?xml version="1.0" encoding="UTF-8"?>
<svg width="16px" height="16px" viewBox="0 0 16 16" version="1.1" xmlns="http://www.w3.org/2000/svg" xmlns:xlink="http://www.w3.org/1999/xlink">
    <!-- Generator: Sketch 49.3 (51167) - http://www.bohemiancoding.com/sketch -->
    <title>ic-close-large</title>
    <desc>Created with Sketch.</desc>
    <defs></defs>
    <g id="ic-close-large" stroke="none" stroke-width="1" fill="none" fill-rule="evenodd">
        <g id="download" fill="#A6A6A6" fill-rule="nonzero">
            <path d="M0.181370387,1.10857688 L1.10857688,0.181370387 C1.35040407,-0.0604567956 1.7424834,-0.0604567956 1.98431058,0.181370387 L15.8186296,14.0156894 C16.0604568,14.2575166 16.0604568,14.6495959 15.8186296,14.8914231 L14.8914231,15.8186296 C14.6495959,16.0604568 14.2575166,16.0604568 14.0156894,15.8186296 L0.181370387,1.98431058 C-0.0604567956,1.7424834 -0.0604567956,1.35040407 0.181370387,1.10857688 Z M14.8885955,0.181335948 L15.8156259,1.10836639 C16.0574072,1.35014765 16.0574072,1.74215253 15.8156259,1.9839338 L1.9839338,15.8156259 C1.74215253,16.0574072 1.35014765,16.0574072 1.10836639,15.8156259 L0.181335948,14.8885955 C-0.060445316,14.6468142 -0.060445316,14.2548094 0.181335948,14.0130281 L14.0130281,0.181335948 C14.2548094,-0.060445316 14.6468142,-0.060445316 14.8885955,0.181335948 Z" id="Shape"></path>
        </g>
    </g>
</svg>