<?xml version="1.0" encoding="UTF-8"?>
<svg width="16px" height="16px" viewBox="0 0 16 16" version="1.1" xmlns="http://www.w3.org/2000/svg" xmlns:xlink="http://www.w3.org/1999/xlink">
    <!-- Generator: Sketch 49.3 (51167) - http://www.bohemiancoding.com/sketch -->
    <title>ic-check-blue</title>
    <desc>Created with Sketch.</desc>
    <defs></defs>
    <g id="ic-check-blue" stroke="none" stroke-width="1" fill="none" fill-rule="evenodd">
        <path d="M15.8846709,3.55139631 L14.0962989,1.71663537 C13.9843257,1.60146293 13.8227643,1.57266982 13.6851972,1.62545719 C13.6340095,1.64305298 13.5844214,1.67504532 13.5460305,1.71663537 L9.76133623,5.60210557 C9.76133623,5.60210557 7.55706371,7.89595665 7.42109625,8.00153138 L5.69510928,9.77390725 L3.98671811,8.02072679 L3.77876787,7.8079777 C3.73877744,7.76638765 2.36470626,6.3763203 2.31351851,6.35712489 C2.17595143,6.30433752 2.01439009,6.33313063 1.90241688,6.44990269 L0.114044845,8.28306401 C0.00207164059,8.39663683 -0.0267214692,8.56459664 0.0244662815,8.70536295 C0.0420620708,8.75815032 0.0724547978,8.80453922 0.114044845,8.84772888 L0.301200059,9.03968295 L5.41037742,14.2832282 C5.45196747,14.3248182 5.49995599,14.3536113 5.5479445,14.3744063 C5.5943334,14.3920021 5.64232192,14.4000002 5.69191005,14.4000002 C5.73989857,14.4000002 5.7894867,14.3920021 5.8358756,14.3744063 C5.88706335,14.3568105 5.93345225,14.3248182 5.97344268,14.2832282 L9.75813699,10.3993576 L12.098377,7.99993176 L15.8814717,4.11606118 C15.9230617,4.07447114 15.9534544,4.02648262 15.9710502,3.97369525 C16.0238376,3.83292894 15.9934449,3.66496913 15.8846709,3.55139631 Z" id="Shape" fill="#137BCF"></path>
    </g>
</svg>