<?xml version="1.0" encoding="UTF-8"?>
<svg width="22px" height="22px" viewBox="0 0 22 22" version="1.1" xmlns="http://www.w3.org/2000/svg" xmlns:xlink="http://www.w3.org/1999/xlink">
    <!-- Generator: Sketch 49.3 (51167) - http://www.bohemiancoding.com/sketch -->
    <title>ic-check-white</title>
    <desc>Created with Sketch.</desc>
    <defs></defs>
    <g id="ic-check-white" stroke="none" stroke-width="1" fill="none" fill-rule="evenodd">
        <path d="M15.9302951,8.21991454 L14.8122951,7.07291454 C14.7422951,7.00091454 14.6412951,6.98291454 14.5552951,7.01591454 C14.5232951,7.02691454 14.4922951,7.04691454 14.4682951,7.07291454 L12.1022951,9.50191454 C12.1022951,9.50191454 10.7242951,10.9359145 10.6392951,11.0019145 L9.56029509,12.1099145 L8.49229509,11.0139145 L8.36229509,10.8809145 C8.33729509,10.8549145 7.47829509,9.98591454 7.44629509,9.97391454 C7.36029509,9.94091454 7.25929509,9.95891454 7.18929509,10.0319145 L6.07129509,11.1779145 C6.00129509,11.2489145 5.98329509,11.3539145 6.01529509,11.4419145 C6.02629509,11.4749145 6.04529509,11.5039145 6.07129509,11.5309145 L6.18829509,11.6509145 L9.38229509,14.9289145 C9.40829509,14.9549145 9.43829509,14.9729145 9.46829509,14.9859145 C9.49729509,14.9969145 9.52729509,15.0019145 9.55829509,15.0019145 C9.58829509,15.0019145 9.61929509,14.9969145 9.64829509,14.9859145 C9.68029509,14.9749145 9.70929509,14.9549145 9.73429509,14.9289145 L12.1002951,12.5009145 L13.5632951,11.0009145 L15.9282951,8.57291454 C15.9542951,8.54691454 15.9732951,8.51691454 15.9842951,8.48391454 C16.0172951,8.39591454 15.9982951,8.29091454 15.9302951,8.21991454 Z" id="Shape" fill="#FFFFFF"></path>
    </g>
</svg>