<svg xmlns="http://www.w3.org/2000/svg" width="9" height="9" viewBox="0 0 9 9">
    <path fill="#137BCF" fill-rule="nonzero" d="M.1 6.75v-4.5C.1 1.067 1.067.1 2.25.1h1.279v1.8H2.25a.352.352 0 0 0-.35.35v4.5c0 .192.158.35.35.35h4.5c.192 0 .35-.158.35-.35V5.357h1.8V6.75c0 1.183-.967 2.15-2.15 2.15h-4.5A2.155 2.155 0 0 1 .1 6.75zm4.971-4.825l-.141-.058-.1-.1-.059-.142V.5L4.83.359l.1-.1L5.071.2h2.88c.194 0 .479.085.637.29a.959.959 0 0 1 .209.487l.003.049v2.903l-.059.141-.1.1-.141.059H7.374l-.141-.059-.1-.1-.059-.141v-.78l-2.132 2.12-.142.058h-.142l-.142-.06-.788-.802-.057-.142v-.14l.06-.14 2.117-2.118H5.07z"/>
</svg>
