<?xml version="1.0" encoding="UTF-8"?>
<svg width="24px" height="24px" viewBox="0 0 24 24" version="1.1" xmlns="http://www.w3.org/2000/svg" xmlns:xlink="http://www.w3.org/1999/xlink">
    <!-- Generator: Sketch 49.3 (51167) - http://www.bohemiancoding.com/sketch -->
    <title>ic-shield-grey</title>
    <desc>Created with Sketch.</desc>
    <defs></defs>
    <g id="ic-shield-grey" stroke="none" stroke-width="1" fill="none" fill-rule="evenodd">
        <g id="Group" transform="translate(0.500000, 0.000000)">
            <path d="M11.5,24 C11.5,23.9923636 0,20.2181818 0,4.94545455 L11.5,0 L23,4.94545455 C23,20.2181818 11.5,24 11.5,24 Z M11.7291667,5 C10.1041667,5 8.75,6.3909465 8.75,8.12962963 C8.75,9.86831276 10.0740741,11.2592593 11.7291667,11.2592593 C13.3842593,11.2592593 14.7083333,9.86831276 14.7083333,8.12962963 C14.7083333,6.3909465 13.3842593,5 11.7291667,5 Z M14.3276836,12.2222222 L8.67231638,12.2222222 C7.21186441,12.2222222 6,13.5448461 6,15.2155288 L6,16.5555556 C7.84144763,17.5185185 9.67767893,18 11.5086939,18 C13.3397089,18 15.1701442,17.5185185 17,16.5555556 L17,15.2155288 C17,13.5448461 15.8502825,12.2222222 14.3276836,12.2222222 Z" id="Combined-Shape" fill="#62656D" fill-rule="nonzero"></path>
            <g id="Group-8" transform="translate(6.000000, 5.000000)"></g>
        </g>
    </g>
</svg>